<?xml version="1.0" encoding="utf-8"?>
<svg xmlns="http://www.w3.org/2000/svg" xmlns:xlink="http://www.w3.org/1999/xlink">
  <symbol id="upload" viewBox="0 0 24 24">
    <path d="M5.75 15C5.75 14.5858 5.41421 14.25 5 14.25C4.58579 14.25 4.25 14.5858 4.25 15H5.75ZM5 16H4.25H5ZM19.75 15C19.75 14.5858 19.4142 14.25 19 14.25C18.5858 14.25 18.25 14.5858 18.25 15H19.75ZM12.5857 5.46852C12.8444 5.14507 12.792 4.67311 12.4685 4.41435C12.1451 4.15559 11.6731 4.20803 11.4143 4.53148L12.5857 5.46852ZM7.41435 9.53148C7.15559 9.85493 7.20803 10.3269 7.53148 10.5857C7.85493 10.8444 8.32689 10.792 8.58565 10.4685L7.41435 9.53148ZM12.5857 4.53148C12.3269 4.20803 11.8549 4.15559 11.5315 4.41435C11.208 4.67311 11.1556 5.14507 11.4143 5.46852L12.5857 4.53148ZM15.4143 10.4685C15.6731 10.792 16.1451 10.8444 16.4685 10.5857C16.792 10.3269 16.8444 9.85493 16.5857 9.53148L15.4143 10.4685ZM12.75 5C12.75 4.58579 12.4142 4.25 12 4.25C11.5858 4.25 11.25 4.58579 11.25 5H12.75ZM11.25 16C11.25 16.4142 11.5858 16.75 12 16.75C12.4142 16.75 12.75 16.4142 12.75 16H11.25ZM4.25 15V16H5.75V15H4.25ZM4.25 16C4.25 18.0711 5.92893 19.75 8 19.75V18.25C6.75736 18.25 5.75 17.2426 5.75 16H4.25ZM8 19.75H16V18.25H8V19.75ZM16 19.75C18.0711 19.75 19.75 18.0711 19.75 16H18.25C18.25 17.2426 17.2426 18.25 16 18.25V19.75ZM19.75 16V15H18.25V16H19.75ZM11.4143 4.53148L7.41435 9.53148L8.58565 10.4685L12.5857 5.46852L11.4143 4.53148ZM11.4143 5.46852L15.4143 10.4685L16.5857 9.53148L12.5857 4.53148L11.4143 5.46852ZM11.25 5V16H12.75V5H11.25Z"/>
  </symbol>
  <symbol id="delete" viewBox="0 0 24 24">
    <path d="M10.8633 12.3027C10.5704 12.0098 10.0956 12.0098 9.80267 12.3027C9.50978 12.5956 9.50978 13.0704 9.80267 13.3633L10.8633 12.3027ZM11.4697 15.0303C11.7626 15.3232 12.2374 15.3232 12.5303 15.0303C12.8232 14.7374 12.8232 14.2626 12.5303 13.9697L11.4697 15.0303ZM9.80267 15.6367C9.50978 15.9296 9.50978 16.4044 9.80267 16.6973C10.0956 16.9902 10.5704 16.9902 10.8633 16.6973L9.80267 15.6367ZM12.5303 15.0303C12.8232 14.7374 12.8232 14.2626 12.5303 13.9697C12.2374 13.6768 11.7626 13.6768 11.4697 13.9697L12.5303 15.0303ZM14.1973 13.3633C14.4902 13.0704 14.4902 12.5956 14.1973 12.3027C13.9044 12.0098 13.4296 12.0098 13.1367 12.3027L14.1973 13.3633ZM11.4697 13.9697C11.1768 14.2626 11.1768 14.7374 11.4697 15.0303C11.7626 15.3232 12.2374 15.3232 12.5303 15.0303L11.4697 13.9697ZM13.1367 16.6973C13.4296 16.9902 13.9044 16.9902 14.1973 16.6973C14.4902 16.4044 14.4902 15.9296 14.1973 15.6367L13.1367 16.6973ZM12.5303 13.9697C12.2374 13.6768 11.7626 13.6768 11.4697 13.9697C11.1768 14.2626 11.1768 14.7374 11.4697 15.0303L12.5303 13.9697ZM13.762 6.25C14.1762 6.25 14.512 5.91421 14.512 5.5C14.512 5.08579 14.1762 4.75 13.762 4.75V6.25ZM10.429 4.75C10.0148 4.75 9.679 5.08579 9.679 5.5C9.679 5.91421 10.0148 6.25 10.429 6.25V4.75ZM17 8.25C17.4142 8.25 17.75 7.91421 17.75 7.5C17.75 7.08579 17.4142 6.75 17 6.75V8.25ZM7 6.75C6.58579 6.75 6.25 7.08579 6.25 7.5C6.25 7.91421 6.58579 8.25 7 8.25V6.75ZM7.73223 18.7678L7.2019 19.2981L7.2019 19.2981L7.73223 18.7678ZM7 17H7.75H7ZM9.80267 13.3633L11.4697 15.0303L12.5303 13.9697L10.8633 12.3027L9.80267 13.3633ZM10.8633 16.6973L12.5303 15.0303L11.4697 13.9697L9.80267 15.6367L10.8633 16.6973ZM13.1367 12.3027L11.4697 13.9697L12.5303 15.0303L14.1973 13.3633L13.1367 12.3027ZM14.1973 15.6367L12.5303 13.9697L11.4697 15.0303L13.1367 16.6973L14.1973 15.6367ZM13.762 4.75H10.429V6.25H13.762V4.75ZM17 6.75H7V8.25H17V6.75ZM7.833 10.25H16.167V8.75H7.833V10.25ZM16.167 10.25C16.2128 10.25 16.25 10.2872 16.25 10.333H17.75C17.75 9.45873 17.0413 8.75 16.167 8.75V10.25ZM16.25 10.333V17H17.75V10.333H16.25ZM16.25 17C16.25 17.9665 15.4665 18.75 14.5 18.75V20.25C16.2949 20.25 17.75 18.7949 17.75 17H16.25ZM14.5 18.75H9.5V20.25H14.5V18.75ZM9.5 18.75C9.03587 18.75 8.59075 18.5656 8.26256 18.2374L7.2019 19.2981C7.8114 19.9076 8.63805 20.25 9.5 20.25V18.75ZM8.26256 18.2374C7.93437 17.9092 7.75 17.4641 7.75 17H6.25C6.25 17.862 6.59241 18.6886 7.2019 19.2981L8.26256 18.2374ZM7.75 17V10.333H6.25V17H7.75ZM7.75 10.333C7.75 10.2872 7.78716 10.25 7.833 10.25V8.75C6.95873 8.75 6.25 9.45873 6.25 10.333H7.75Z" />
  </symbol>
</svg>